# xmcd
#
# Track frame offsets:
#   150
#   15548
#   34043
#   51324
#   76943
#   107575
#   125663
#   142881
#   168155
#   194818
#   211244
#   231332
#   253965
#   268046
#   282958
#   297010
#   324598
#   340423
#
# Disc length: 4726 seconds
#
# Revision: 0
# Processed by: cddbd v1.5.2PL0 Copyright (c) Steve Scherf et al.
# Submitted via: GXTranscoder 2.0.1939
#
DISCID=10127412
DTITLE=Falco - Jeanny
DYEAR=1900
DGENRE=Alternative
TTITLE0=HipHop
TTITLE1=Toten Hosen
TTITLE2=Rap
TTITLE3=Julian
TTITLE4=julian
TTITLE5=eminem
TTITLE6=Falco
TTITLE7=Falco
TTITLE8=Falco
TTITLE9=Julian
TTITLE10=Julian
TTITLE11=Julian2
TTITLE12=Julian3
TTITLE13=Julian4
TTITLE14=Julian5
TTITLE15=Julian6
TTITLE16=Julian7
TTITLE17=Julian8
EXTD=
EXTT0=
EXTT1=
EXTT2=
EXTT3=
EXTT4=
EXTT5=
EXTT6=
EXTT7=
EXTT8=
EXTT9=
EXTT10=
EXTT11=
EXTT12=
EXTT13=
EXTT14=
EXTT15=
EXTT16=
EXTT17=
PLAYORDER=
